<svg xmlns="http://www.w3.org/2000/svg" width="32" height="32" viewBox="0 0 32 32" xmlns:xlink="http://www.w3.org/1999/xlink">
  <defs>
    <polygon id="a" points="0 .051 31.949 .051 31.949 31.996 0 31.996"/>
  </defs>
  <g fill="none" fill-rule="evenodd">
    <mask id="b" fill="white">
      <use xlink:href="#a"/>
    </mask>
    <path fill="#0B0B09" d="M15.9747921,0.0504157549 C11.6363063,0.0504157549 11.0923063,0.0686914661 9.38846389,0.146555799 C7.68805252,0.224210066 6.52680963,0.494214442 5.51079212,0.889067834 C4.46025383,1.2972954 3.56936543,1.84353611 2.6812779,2.73162363 C1.79319037,3.61971116 1.24694967,4.51066958 0.838792123,5.56113786 C0.443728665,6.5772954 0.173724289,7.73853829 0.0962100656,9.43887965 C0.0184157549,11.1427221 7.00218818e-05,11.6866521 7.00218818e-05,16.0251379 C7.00218818e-05,20.3637637 0.0184157549,20.9076937 0.0962100656,22.6115361 C0.173724289,24.3118775 0.443728665,25.4731204 0.838792123,26.4892779 C1.24694967,27.5397462 1.79319037,28.4307046 2.6812779,29.3187921 C3.56936543,30.2068796 4.46025383,30.7531204 5.51079212,31.1613479 C6.52680963,31.5562013 7.68805252,31.8262057 9.38846389,31.90386 C11.0923063,31.9815842 11.6363063,32 15.9747921,32 C20.3132779,32 20.8573479,31.9815842 22.5611904,31.90386 C24.2615317,31.8262057 25.4227746,31.5562013 26.4388621,31.1613479 C27.4894004,30.7531204 28.3802188,30.2068796 29.2683063,29.3187921 C30.1563939,28.4307046 30.7026346,27.5397462 31.1108621,26.4892779 C31.5058556,25.4731204 31.77586,24.3118775 31.8534442,22.6115361 C31.9312385,20.9076937 31.9495142,20.3637637 31.9495142,16.0251379 C31.9495142,11.6866521 31.9312385,11.1427221 31.8534442,9.43887965 C31.77586,7.73853829 31.5058556,6.5772954 31.1108621,5.56113786 C30.7026346,4.51066958 30.1563939,3.61971116 29.2683063,2.73162363 C28.3802188,1.84353611 27.4894004,1.2972954 26.4388621,0.889067834 C25.4227746,0.494214442 24.2615317,0.224210066 22.5611904,0.146555799 C20.8573479,0.0686914661 20.3132779,0.0504157549 15.9747921,0.0504157549 M15.9747921,2.92873523 C20.2402451,2.92873523 20.7453829,2.94498031 22.4299694,3.02179431 C23.9874661,3.09286652 24.8333304,3.35320788 25.3962363,3.57188621 C26.1419694,3.86170678 26.6741357,4.20789497 27.2330503,4.76687965 C27.7921751,5.32593435 28.1383632,5.85803063 28.4280438,6.60369365 C28.6467221,7.16659956 28.9070635,8.01253392 28.9781357,9.56996061 C29.0549497,11.254547 29.0712648,11.7596849 29.0712648,16.0251379 C29.0712648,20.2907309 29.0549497,20.7958687 28.9781357,22.4803151 C28.9070635,24.0378818 28.6467221,24.8838162 28.4280438,25.4467221 C28.1383632,26.1923151 27.7921751,26.7244814 27.2330503,27.2835361 C26.6741357,27.8425208 26.1419694,28.188709 25.3962363,28.4784595 C24.8333304,28.6972079 23.9874661,28.9575492 22.4299694,29.0284814 C20.745663,29.1054354 20.2405952,29.1216105 15.9747921,29.1216105 C11.7089891,29.1216105 11.2039212,29.1054354 9.51961488,29.0284814 C7.96218818,28.9575492 7.11625383,28.6972079 6.55334792,28.4784595 C5.8076849,28.188709 5.2755186,27.8425208 4.71653392,27.2835361 C4.15761926,26.7244814 3.81143107,26.1923151 3.5216105,25.4467221 C3.30286214,24.8838162 3.04259081,24.0378818 2.97144858,22.4803151 C2.8947046,20.7958687 2.8783895,20.2907309 2.8783895,16.0251379 C2.8783895,11.7596849 2.8947046,11.254547 2.97144858,9.56996061 C3.04259081,8.01253392 3.30286214,7.16659956 3.5216105,6.60369365 C3.81143107,5.85803063 4.15761926,5.32593435 4.71653392,4.76687965 C5.2755186,4.20789497 5.8076849,3.86170678 6.55334792,3.57188621 C7.11625383,3.35320788 7.96218818,3.09286652 9.51961488,3.02179431 C11.2042013,2.94498031 11.7093392,2.92873523 15.9747921,2.92873523" mask="url(#b)"/>
    <path fill="#0B0B09" d="M15.9747921 21.3500919C13.0339431 21.3500919 10.6498381 18.9660569 10.6498381 16.0251379 10.6498381 13.0842888 13.0339431 10.7002538 15.9747921 10.7002538 18.9157112 10.7002538 21.2997462 13.0842888 21.2997462 16.0251379 21.2997462 18.9660569 18.9157112 21.3500919 15.9747921 21.3500919M15.9747921 7.82193435C11.4443063 7.82193435 7.77158862 11.4947221 7.77158862 16.0251379 7.77158862 20.5557637 11.4443063 24.2284114 15.9747921 24.2284114 20.5052779 24.2284114 24.1779956 20.5557637 24.1779956 16.0251379 24.1779956 11.4947221 20.5052779 7.82193435 15.9747921 7.82193435M26.419186 7.49780306C26.419186 8.55646389 25.5609278 9.41479212 24.5021969 9.41479212 23.4435361 9.41479212 22.5852079 8.55646389 22.5852079 7.49780306 22.5852079 6.43907221 23.4435361 5.580814 24.5021969 5.580814 25.5609278 5.580814 26.419186 6.43907221 26.419186 7.49780306"/>
  </g>
</svg>
